<?xml version="1.0" encoding="UTF-8" standalone="no"?>
<!DOCTYPE svg PUBLIC "-//W3C//DTD SVG 1.1//EN" "http://www.w3.org/Graphics/SVG/1.1/DTD/svg11.dtd">
<svg xmlns="http://www.w3.org/2000/svg" version="1.1" viewBox="0 0 90 120">
<g stroke-width="2.00" fill="none" stroke-linecap="butt">
<path stroke="#ff995c" vector-effect="non-scaling-stroke" d="
  M 29.00 116.96
  Q 29.95 115.16 28.26 114.22
  Q 7.69 102.85 9.84 78.66
  Q 10.40 72.29 11.20 69.49
  Q 16.27 51.56 18.44 33.06
  Q 18.50 32.57 18.78 32.17
  L 19.79 30.75"
/>
<path stroke="#ffc56e" vector-effect="non-scaling-stroke" d="
  M 61.41 83.77
  A 0.46 0.46 0.0 0 1 60.75 83.33
  Q 62.15 61.48 50.47 43.18
  A 0.83 0.83 0.0 0 0 48.97 43.41
  Q 45.77 54.97 37.99 64.06
  A 0.98 0.98 0.0 0 1 36.68 64.23
  L 30.87 60.19
  A 1.04 1.03 31.7 0 0 29.37 60.54
  C 21.74 74.37 11.68 88.17 21.71 103.81
  C 32.84 121.14 61.81 119.28 70.01 100.03
  C 72.91 93.22 72.41 85.37 70.61 78.14
  A 0.91 0.91 0.0 0 0 69.02 77.77
  Q 65.84 81.58 61.41 83.77"
/>
<path stroke="#fff0be" vector-effect="non-scaling-stroke" d="
  M 44.17 74.97
  C 38.91 78.97 34.34 86.15 31.94 91.67
  C 24.25 109.39 46.86 120.65 56.94 106.16
  C 61.41 99.75 58.72 95.24 54.28 89.23
  Q 49.24 82.41 44.84 75.09
  A 0.46 0.45 -34.2 0 0 44.17 74.97"
/>
</g>
<path fill="#ffa85e" d="
  M 29.00 116.96
  Q 29.95 115.16 28.26 114.22
  Q 7.69 102.85 9.84 78.66
  Q 10.40 72.29 11.20 69.49
  Q 16.27 51.56 18.44 33.06
  Q 18.50 32.57 18.78 32.17
  L 19.79 30.75
  Q 24.75 33.66 28.08 37.88
  A 0.65 0.65 0.0 0 0 29.11 37.86
  Q 40.63 21.94 42.27 3.00
  C 42.79 -3.01 48.42 2.21 50.05 3.70
  Q 72.18 23.91 72.59 54.26
  Q 72.67 59.91 72.57 65.57
  Q 72.55 66.46 73.23 65.89
  L 84.03 56.70
  A 1.20 1.19 -63.8 0 1 84.86 56.41
  Q 86.76 56.51 87.17 58.51
  C 89.05 67.81 90.32 78.26 87.68 87.62
  C 80.71 112.40 53.28 125.15 29.00 116.96
  Z
  M 61.41 83.77
  A 0.46 0.46 0.0 0 1 60.75 83.33
  Q 62.15 61.48 50.47 43.18
  A 0.83 0.83 0.0 0 0 48.97 43.41
  Q 45.77 54.97 37.99 64.06
  A 0.98 0.98 0.0 0 1 36.68 64.23
  L 30.87 60.19
  A 1.04 1.03 31.7 0 0 29.37 60.54
  C 21.74 74.37 11.68 88.17 21.71 103.81
  C 32.84 121.14 61.81 119.28 70.01 100.03
  C 72.91 93.22 72.41 85.37 70.61 78.14
  A 0.91 0.91 0.0 0 0 69.02 77.77
  Q 65.84 81.58 61.41 83.77
  Z"
/>
<path fill="#ff8a59" d="
  M 19.79 30.75
  L 18.78 32.17
  Q 18.50 32.57 18.44 33.06
  Q 16.27 51.56 11.20 69.49
  Q 10.40 72.29 9.84 78.66
  Q 7.69 102.85 28.26 114.22
  Q 29.95 115.16 29.00 116.96
  Q 3.95 107.77 0.00 81.19
  L 0.00 73.19
  Q 1.36 63.04 4.65 55.46
  Q 11.14 40.47 14.54 29.96
  A 1.00 0.98 0.4 0 1 15.19 29.33
  Q 17.94 28.52 19.79 30.75
  Z"
/>
<path fill="#ffe17d" d="
  M 61.41 83.77
  Q 65.84 81.58 69.02 77.77
  A 0.91 0.91 0.0 0 1 70.61 78.14
  C 72.41 85.37 72.91 93.22 70.01 100.03
  C 61.81 119.28 32.84 121.14 21.71 103.81
  C 11.68 88.17 21.74 74.37 29.37 60.54
  A 1.04 1.03 31.7 0 1 30.87 60.19
  L 36.68 64.23
  A 0.98 0.98 0.0 0 0 37.99 64.06
  Q 45.77 54.97 48.97 43.41
  A 0.83 0.83 0.0 0 1 50.47 43.18
  Q 62.15 61.48 60.75 83.33
  A 0.46 0.46 0.0 0 0 61.41 83.77
  Z
  M 44.17 74.97
  C 38.91 78.97 34.34 86.15 31.94 91.67
  C 24.25 109.39 46.86 120.65 56.94 106.16
  C 61.41 99.75 58.72 95.24 54.28 89.23
  Q 49.24 82.41 44.84 75.09
  A 0.46 0.45 -34.2 0 0 44.17 74.97
  Z"
/>
<path fill="#ffffff" d="
  M 31.94 91.67
  C 34.34 86.15 38.91 78.97 44.17 74.97
  A 0.46 0.45 -34.2 0 1 44.84 75.09
  Q 49.24 82.41 54.28 89.23
  C 58.72 95.24 61.41 99.75 56.94 106.16
  C 46.86 120.65 24.25 109.39 31.94 91.67
  Z"
/>
</svg>
